/* XPM */
static char *result[] = {
/* columns rows colors chars-per-pixel */
"32 32 206 2 ",
"   c #2E2014",
".  c #312316",
"X  c #34261B",
"o  c #36291D",
"O  c #3A2C1E",
"+  c #372A20",
"@  c #3C2E22",
"#  c #3E3124",
"$  c #3F322A",
"%  c #423425",
"&  c #453827",
"*  c #443629",
"=  c #46392A",
"-  c #4A3B2C",
";  c #4A3E34",
":  c #4D4135",
">  c #4F4239",
",  c #51463B",
"<  c #53483D",
"1  c #192A59",
"2  c #212447",
"3  c #29295A",
"4  c #243559",
"5  c #192967",
"6  c #15347A",
"7  c #2C2C65",
"8  c #233966",
"9  c #263C75",
"0  c #3E3A73",
"q  c #44366E",
"w  c #25426C",
"e  c #344768",
"r  c #2C4674",
"t  c #374878",
"y  c #2D517E",
"u  c #36577A",
"i  c #564C45",
"p  c #5E534C",
"a  c #61564B",
"s  c #655B54",
"d  c #6B6157",
"f  c #6F655D",
"g  c #47587B",
"h  c #6C6766",
"j  c #716A64",
"k  c #746E6D",
"l  c #77716F",
"z  c #7B736D",
"x  c #757373",
"c  c #7B7571",
"v  c #7C7877",
"b  c #88827D",
"n  c #183C86",
"m  c #1C358A",
"M  c #1A3591",
"N  c #263C84",
"B  c #383782",
"V  c #473C91",
"C  c #1D419A",
"Z  c #344E84",
"A  c #385888",
"S  c #2F4C94",
"D  c #3B628B",
"F  c #184FAE",
"G  c #1F51A0",
"H  c #1E49B1",
"J  c #264AA5",
"K  c #2950AE",
"L  c #3757A9",
"P  c #3456B5",
"I  c #3860A5",
"U  c #2762BF",
"Y  c #3D64BE",
"T  c #404C82",
"R  c #495C87",
"E  c #5B4D96",
"W  c #6A479B",
"Q  c #4C6788",
"!  c #576B89",
"~  c #4D6D94",
"^  c #466899",
"/  c #5F6D91",
"(  c #5A7595",
")  c #606F8D",
"_  c #636E96",
"`  c #687A98",
"'  c #747B98",
"]  c #5E47A1",
"[  c #7152A9",
"{  c #4865A6",
"}  c #5568A7",
"|  c #5C75A3",
" . c #4868B6",
".. c #4E7CB1",
"X. c #5877B8",
"o. c #6578A1",
"O. c #656CB5",
"+. c #1B58CA",
"@. c #2658C9",
"#. c #3258CA",
"$. c #1D61CE",
"%. c #3967C8",
"&. c #3771C8",
"*. c #2768D8",
"=. c #356AD5",
"-. c #4467C8",
";. c #4678CC",
":. c #5978C6",
">. c #4B69D2",
",. c #4677D3",
"<. c #557AD7",
"1. c #637BC6",
"2. c #83469E",
"3. c #A974CB",
"4. c #B47ACA",
"5. c #70869D",
"6. c #5580AE",
"7. c #5784BC",
"8. c #6D82A5",
"9. c #6986A6",
"0. c #768BA9",
"q. c #788BB5",
"w. c #6E91B8",
"e. c #7C91B9",
"r. c #398CE3",
"t. c #4E88D9",
"y. c #5C89D1",
"u. c #5589D9",
"i. c #6885C7",
"p. c #738EC5",
"a. c #7793C8",
"s. c #6A88D3",
"d. c #6D93D7",
"f. c #7AA2CC",
"g. c #5293E5",
"h. c #6488E5",
"j. c #6C9FE8",
"k. c #6AA5EA",
"l. c #78A5EC",
"z. c #87878B",
"x. c #938E8D",
"c. c #97918F",
"v. c #898B91",
"b. c #8F929A",
"n. c #9F989A",
"m. c #818DA5",
"M. c #8796A9",
"N. c #9596AA",
"B. c #808FBA",
"V. c #8998B8",
"C. c #949DB7",
"Z. c #9CA1AF",
"A. c #98A7B7",
"S. c #A7A5A8",
"D. c #A5AAB7",
"F. c #A7B1BC",
"G. c #AEB2BE",
"H. c #B5B9BF",
"J. c #889BC7",
"K. c #8C8BD7",
"L. c #839DD6",
"P. c #B492DC",
"I. c #8BA7C7",
"U. c #9AA9C6",
"Y. c #9CB1CC",
"T. c #83A6DC",
"R. c #91A9D0",
"E. c #9AACD4",
"W. c #98B0D8",
"Q. c #A4ACC2",
"!. c #ABB3C3",
"~. c #ABB6CC",
"^. c #BABBC3",
"/. c #B8BDCC",
"(. c #A8B9D8",
"). c #B3BDD6",
"_. c #8F93E1",
"`. c #9495E3",
"'. c #B298E1",
"]. c #9AA9E7",
"[. c #8DB4EB",
"{. c #A8AEE8",
"}. c #CD92D8",
"|. c #C0BFC5",
" X c #DD9FE3",
".X c #CAAEEA",
"XX c #D7AAE6",
"oX c #E9BBE8",
"OX c #BFC3CF",
"+X c #B8C2D7",
"@X c #BAC6DB",
"#X c #C4C5C9",
"$X c #C1C5D2",
"%X c #C4C9D4",
"&X c #CACED2",
"*X c #C3CBDB",
"=X c #CDD2DD",
"-X c #D3D3DE",
";X c #D4D9E6",
":X c #D7C6F2",
">X c #E9C8EE",
",X c #F9CDE9",
"<X c #F8DBEC",
"1X c #F5D5F3",
"2X c #FCE8ED",
"3X c #F9E7F5",
/* pixels */
"# : - - : & % - - ; - - & - - - % - - - - - - & - - & - - - - - ",
". % O # @ # # O @ @ % O # % % O O @ O O @ # # % # @ % @ @ % % & ",
". & O O O @ O % + @ @ O O % O O O O @ @ # # # % @ O # # % O O % ",
"  @ O o O X O O X + o X X O X X X O O O O X X O O o @ X X X O O ",
"% % @ % % % % % % % # = ; , < i > > = = % + $ $ O % % % % % % & ",
"@ O # @ o O @ # @ + ; l v.S.U.U.C.Z.z.v h i * # X % O O @ @ @ % ",
"$ @ % @ O O @ @ @ ; N.(.U.J.J.e.J.J.V.I.~.~.v.s % % % @ @ @ @ % ",
"O X @ + X X o O $ m.W.T.a.s.X.X.i.s.i.w.f.].(.!.j f % X X O O O ",
"= = - = & = - < x [.k.d.t.,.P Y &.&.-.t.j.s.L.E./.^.p = * % % - ",
"O O # O X o : C.f.k.g.&.r.*.@.K G U U &.Y  .1.B.Q.$Xx.- % O % % ",
"@ O @ # # i z.I.k.g.>.%.$.$.n 6 N G M m 9 y g _ m.!.%Xc.% + % % ",
"O o o o i A.Y.e.y.&.=.*.+.F 6 6 m J H m m J Z g ' J./.S.* + X X ",
"= % % = b.+XR.' t.;.*.*.F C m N B V N m M 5 9 T / m.Q.^.f * * - ",
"@ @ + * b.(.L.|  .>.#.@.J Z E 2.W W V 7 1 5 5 r R ' N./.|.; @ * ",
"@ $ + i A.E.q.}  .P @.#.Y O.3.4.}.3.[ q 3 2 1 8 T ' N.^.:Xi $ * ",
"+ + X p Q.].a.} L P J %.1.P. X,X,XoX4.W 7 2 2 8 t _ N.G.-Xx.+ + ",
"* * * |./.U.p. .L J K <.`..X1X3X2X<X X3.] 8 3 8 e ) V.!.=Xz * - ",
"% @ @ -X/.C.8.:.#.#.P <.`.>X3X3X2X<X>X'.[ 0 q 0 t ) V.!.&Xc.% % ",
"% + @ n.|.D.q.:.-.>.>.<.[.:X3X1X>XXX.X{.O.r 4 r g o.J./.&Xi % % ",
"X X . S.%XQ.B.o. .<.h.g.l.{.:XoX.X'.`.O.Z w w A ~ 0.E.@X|.; X X ",
"* % @ s ^.~.V.8.} :.`.h.j.l.].]._.K.O.t r w r A ( 0.(.|.c.- * = ",
"% % % < S.+XU.0.|  .p.K.u.t.j.d.1.} E 4 8 e Q g o.N.).^.b - % % ",
"% @ % - p D.(.I.9.~ i.s.} I D D { Z w r Q R ~ ` M.~.*XS.; % + % ",
"X X X X + j !.+XI.w.6...^ ^ I u S y u ^ ~ ~ ! 0.A.%X-Xs . . X + ",
"* * % * * s n.!.~.I.f.d.w.7.6.u u D u Q ) 9.e.E.@X;X&Xa = % * % ",
"= % % X % + j |.#X+XY.V.9.( 6.Q ~ 9.9.` 5.V.Y.@X*X/.j = @ O + + ",
"= % % % % % * z #XOXOXH.A.A.M.M.M.N.D.Z.F.OX*X=Xc.> % + @ + @ + ",
"% X . . . X X O d p c c z x k j k k l l l x v z * + X + + + X + ",
"% % * * % % * % # # # # & % & & & & $ # * = % % % % % O = % = = ",
"o + % + % + % X O O # # + # # O # # O O # # @ @ @ @ @ X = @ @ @ ",
"% % % X O % X + O O O O O O O # # # O O # # @ % % @ + X % o @ % ",
"+ . O + X X + + o O X o X o o o X X o o o O O @ + O + . @ X + @ "
};
