/* XPM */
static char *_642543441837[] = {
/* columns rows colors chars-per-pixel */
"45 36 142 2 ",
"   c #E9190E",
".  c #F30710",
"X  c #F10D10",
"o  c #F30F12",
"O  c #F40D13",
"+  c #F50D13",
"@  c #F40E12",
"#  c #F40F12",
"$  c #F40F13",
"%  c #F40F14",
"&  c #F21011",
"*  c #F31012",
"=  c #F41012",
"-  c #F01712",
";  c #F22F1B",
":  c #BE733B",
">  c #E9491D",
",  c #C97407",
"<  c #CA6F10",
"1  c #CB6B17",
"2  c #CC671F",
"3  c #CE6919",
"4  c #CC691A",
"5  c #CB681D",
"6  c #CA681E",
"7  c #CB681E",
"8  c #CB691E",
"9  c #CD681C",
"0  c #CC681D",
"q  c #CD681D",
"w  c #CE691C",
"e  c #CC681E",
"r  c #D16D1B",
"t  c #DE7A1F",
"y  c #F34925",
"u  c #FB4528",
"i  c #FC4829",
"p  c #F35626",
"a  c #F95A2C",
"s  c #FB5C31",
"d  c #C76922",
"f  c #C86923",
"g  c #C46E2D",
"h  c #F76C2A",
"j  c #F4712E",
"k  c #F47D31",
"l  c #BC7745",
"z  c #DA8914",
"x  c #DA821D",
"c  c #E9821F",
"v  c #EA831F",
"b  c #ED861E",
"n  c #ED861F",
"m  c #ED871F",
"M  c #E5951F",
"N  c #E4981B",
"B  c #ED8620",
"V  c #EC8720",
"C  c #EE8720",
"Z  c #E98624",
"A  c #EC8921",
"S  c #ED8D26",
"D  c #E98828",
"F  c #F3982F",
"G  c #F98C3B",
"H  c #FC893C",
"J  c #F29E30",
"K  c #F99F37",
"L  c #F8953A",
"P  c #F69F3A",
"I  c #F89839",
"U  c #F99E3C",
"Y  c #F6B122",
"T  c #FEBF23",
"R  c #F6A038",
"E  c #F7A43A",
"W  c #F6A53B",
"Q  c #F5A53C",
"!  c #F6A43C",
"~  c #F7A43C",
"^  c #F6A53C",
"/  c #F7A53C",
"(  c #F6A43D",
")  c #F7A43D",
"_  c #F6A53D",
"`  c #F7A63D",
"'  c #F5A53F",
"]  c #F8A53B",
"[  c #F8A13D",
"{  c #F8A33C",
"}  c #F9A33E",
"|  c #F9A23F",
" . c #F8A43D",
".. c #F8A63D",
"X. c #EDB939",
"o. c #FDC21C",
"O. c #FDC31C",
"+. c #FDC21D",
"@. c #FEC21C",
"#. c #FEC31C",
"$. c #FEC21D",
"%. c #FCC222",
"&. c #F5C235",
"*. c #F5C335",
"=. c #F6C336",
"-. c #CF8044",
";. c #FF9842",
":. c #FC9F40",
">. c #D9AB56",
",. c #F5A540",
"<. c #F1A644",
"1. c #F1A645",
"2. c #F4A546",
"3. c #FDA340",
"4. c #F8A845",
"5. c #F1A849",
"6. c #EFA950",
"7. c #F4AF55",
"8. c #F6AD56",
"9. c #F6B056",
"0. c #F4B062",
"q. c #F2B96C",
"w. c #F7B671",
"e. c #F4B974",
"r. c #F8C076",
"t. c #F9D575",
"y. c #F7BB81",
"u. c #F5BB84",
"i. c #FEC691",
"p. c #FEC896",
"a. c #FCC5A0",
"s. c #FDC9A1",
"d. c #FCCAA0",
"f. c #FDC9A2",
"g. c #FBC9A4",
"h. c #F9CAA8",
"j. c #F8CAA9",
"k. c #F8C9AB",
"l. c #F8CAAA",
"z. c #F8C9AC",
"x. c #F8C9AD",
"c. c None",
/* pixels */
"c.c.c.c.c.c.c.c.c.c.c.c.c.c.c.c.c.c.c.c.c.c.c.c.c.c.c.c.c.c.c.c.c.c.c.c.c.c.c.c.c.c.c.c.c.",
"c.c.c.c.c.c.c.c.c.c.c.c.c.c.c.c.c.c.c.c.c.c.c.c.c.c.c.c.c.c.c.c.c.c.c.c.c.c.c.c.c.c.c.c.c.",
"c.c.c.c.c.c.c.c.c.c.c.c.c.c.c.c.c.c.=.=.+.+.O.O.O.&.c.c.c.c.c.c.c.c.c.c.c.c.c.c.c.c.c.c.c.",
"c.c.c.c.c.c.c.c.c.c.c.c.c.c.c.t.c.c.^ W O.O.O.O.O.O.O.O.O.>.c.c.c.c.c.c.c.c.c.c.c.c.c.c.c.",
"c.c.c.c.c.c.c.c.c.c.c.c.c.c.c.w.^ ^ ^ ^ ^ ^ ] m b r 2 < O.@.@.c.c.c.c.c.c.c.c.c.c.c.c.c.c.",
"c.c.c.c.c.c.c.c.c.c.c.c.c.e.^ ^ ^ ^ ^ ^ ^ ^ ^ ^ B b b 4 2 M O.O.%.c.c.c.c.c.c.c.c.c.c.c.c.",
"c.c.c.c.c.c.c.c.c.c.c.5.f.W ^ ^ ^ ^ ^ ^ ^ ^ ^ ^ ! B m m 2 4 J O.O.O.c.c.c.c.c.c.c.c.c.c.c.",
"c.c.c.c.c.c.c.c.c.c.q.k.^ W ^ ^ ^ ^ ^ ^ ^ ^ ^ ^ ^ ! S m m 2 2 4 O.O.O.c.c.c.c.c.c.c.c.c.c.",
"c.c.c.c.c.c.c.c.c.c.k.^ ^ ^ ^ ^ ^ ^ ^ ^ ^ ^ ^ ^ ^ ^ ^ m m m 2 2 Y o.o.X.c.c.c.c.c.c.c.c.c.",
"c.c.c.c.c.c.c.c.c.i.y.^ ^ ^ ^ ^ ^ ^ ^ ^ ^ ^ ^ ^ ^ ^ ^ ^ m m m 9 5 o.o.o.c.c.c.c.c.c.c.c.c.",
"c.c.c.c.c.c.c.c.<.z.^ ^ ^ W ^ ^ % ^ ^ ^ ^ ^ ^ ^ ^ ^ @ ^ B b m 4 5 1 o.o.O.c.c.c.c.c.c.c.c.",
"c.c.c.c.c.c.c.c.z.^ ^ ^ k.k.^  .@ L ^ ^ ^ ^ ^ ^ } o @ :.^ B b b 2 o.o.o.O.c.c.c.c.c.c.c.c.",
"c.c.c.c.c.c.c.<.l.^ ^ ^ k.z.= @ @ = = s ^ ^ ^ ^ % = @ o O m B m 2 9 @.o.O.0 c.c.c.c.c.c.c.",
"c.c.c.c.c.c.c.^ l.^ ^ W ! ^ I @ = @ j ^ ^ ^ ^ ^ ;.@ @ o ^ R m m 4 2 z o.O., c.c.c.c.c.c.c.",
"c.c.c.c.c.c.c.f.z.k.W ^ ^ ^ ^ @ = = 3.^ ^ ^ ^ ^   @ p o ! ! m b m 2 9 @.O., c.c.c.c.c.c.c.",
"c.c.c.c.c.c.c.k.l.z.W W ^ ^ H } ^  .i ^ ^ ^ ^ ^ ^ ^ ^ ^ ^ ! b B m 4 2 M O., f c.c.c.c.c.c.",
"c.c.c.c.c.c.^ k.k.k.^ ^ ^ ^ ^ ^ ^ ^ ^ ^ ^ ^ ^ ^ ^ ^ ^ ^ ^ ^ m m m 4 2 2 @., d c.c.c.c.c.c.",
"c.c.c.c.c.c.^ k.k.k.^ ^ ^ ^ ^ ^ ^ ^ ^ ^ ^ ^ ^ ^ ^ ^ ^ ^ ^ ^ m m m 2 2 4 @., d c.c.c.c.c.c.",
"c.c.c.c.c.c.^ k.k.k.^ ^ ^ ^ ^ ^ ^ ^ ^ ^ ^ ^ ^ ^ ^ ^ ^ ^ ! ! m m m 4 4 2 @.2 d c.c.c.c.c.c.",
"c.c.c.c.c.c.] k.k.k.^ ^ ^ ^ ^ ^ ^ ^ ^ ^ ^ ^ ^ ^ ^ ^ ^ ^ ^ ! b b m 2 2 4 T 4 d c.c.c.c.c.c.",
"c.c.c.c.c.c.4.f.k.k.0.W ^ ^ ^ ^ ^ k ^ ^ ^ ^ ^ ^ ^ ^ ^ ^ y ^ B m m 4 2 2 x 0 c.c.c.c.c.c.c.",
"c.c.c.c.c.c.c.f.k.k.^ ^ ^ ^ ^ ^ ^ @ u ^ ^ ^ ^ ^ ^ ^ ^ ^ @ > m m v 2 4 2 0 0 c.c.c.c.c.c.c.",
"c.c.c.c.c.c.c.W k.k.^ ^ ^ ^ U @ = @ = @ % ^ ^ ^ ^ } = @ @ @ @ @ w 2 2 2 a.0 c.c.c.c.c.c.c.",
"c.c.c.c.c.c.c.] k.z.^ ^ ^ ^ ^ ^ @ = @ o ^ ^ ^ ^ ^ ^ ^ = @ @ ; B 4 2 4 4 f 5 c.c.c.c.c.c.c.",
"c.c.c.c.c.c.c.6.2.k.^ ^ ^ ^ ^ W @ @ @ a ^ ^ ^ ^ ^ ^ ^ @ @ @ h v 0 0 0 k.0 c.c.c.c.c.c.c.c.",
"c.c.c.c.c.c.c.c.W k.g.^ ^ ^ ^ ^ - ^ P @ ^ ^ ^ ^ ^ ^ ^ G m m . 0 0 0 0 : 0 c.c.c.c.c.c.c.c.",
"c.c.c.c.c.c.c.c.c. .z.! ^ ^ ^ ^ ^ ^ ^ ^ ^ ^ ^ ^ ^ ^ ^ K m m 0 0 0 0 k.0 c.c.c.c.c.c.c.c.c.",
"c.c.c.c.c.c.c.c.c.,.u.8.} ^ ^ ^ ^ ^ ^ ^ ^ ^ ^ ^ ^ ^ ^ m m m 0 0 0 0 0 l c.c.c.c.c.c.c.c.c.",
"c.c.c.c.c.c.c.c.c.c. .p.^  .R W ^ ^ ^ ^ ^ ^ ^ ^ ^ R m m m 4 2 2 0 0 5 c.c.c.c.c.c.c.c.c.c.",
"c.c.c.c.c.c.c.c.c.c.c.^  .^  .}  .^ W  . .^ ^  .^ m m m 2 2 2 4 0 g c.c.c.c.c.c.c.c.c.c.c.",
"c.c.c.c.c.c.c.c.c.c.c.c.r.^  .W ^  .} W } R R } B B m 0 0 2 4 2 -.c.c.c.c.c.c.c.c.c.c.c.c.",
"c.c.c.c.c.c.c.c.c.c.c.c.c.c.9.^  .^  .R ! } J m m t 0 0 0 4 2 c.c.c.c.c.c.c.c.c.c.c.c.c.c.",
"c.c.c.c.c.c.c.c.c.c.c.c.c.c.c.c.8.W ^ ^ } m B B 0 0 0 0 5 c.c.c.c.c.c.c.c.c.c.c.c.c.c.c.c.",
"c.c.c.c.c.c.c.c.c.c.c.c.c.c.c.c.c.c.c.D Z 4 0 0 0 0 c.c.c.c.c.c.c.c.c.c.c.c.c.c.c.c.c.c.c.",
"c.c.c.c.c.c.c.c.c.c.c.c.c.c.c.c.c.c.c.c.c.c.c.c.c.c.c.c.c.c.c.c.c.c.c.c.c.c.c.c.c.c.c.c.c.",
"c.c.c.c.c.c.c.c.c.c.c.c.c.c.c.c.c.c.c.c.c.c.c.c.c.c.c.c.c.c.c.c.c.c.c.c.c.c.c.c.c.c.c.c.c."
};
