/* XPM */
static char *a66a9fd0e67d47c09a255a120ce42f133axyTwtdhpjf1jeI[] = {
/* columns rows colors chars-per-pixel */
"29 29 194 2 ",
"   c None",
".  c #16120D",
"X  c #171514",
"o  c #1A1513",
"O  c #19151A",
"+  c #17181C",
"@  c #1B1A1D",
"#  c #181817",
"$  c #221915",
"%  c #29241C",
"&  c #27231D",
"*  c #1D1C21",
"=  c #181C25",
"-  c #221C25",
";  c #241E2B",
":  c #2A1B28",
">  c #1C2326",
",  c #252424",
"<  c #2A2522",
"1  c #272828",
"2  c #312C22",
"3  c #283A2B",
"4  c #3B352D",
"5  c #3D3C2E",
"6  c #322435",
"7  c #3B3332",
"8  c #403927",
"9  c #423D33",
"0  c #443D3D",
"q  c #2D472A",
"w  c #39683E",
"e  c #3A7538",
"r  c #4C473B",
"t  c #4E4B3D",
"y  c #55493A",
"u  c #4B543E",
"i  c #55513E",
"p  c #3B2643",
"a  c #3F3D50",
"s  c #442B4F",
"d  c #493849",
"f  c #462C51",
"g  c #4B2C58",
"h  c #522E5B",
"j  c #4A3454",
"k  c #593867",
"l  c #5F3973",
"z  c #60396C",
"x  c #613571",
"c  c #434A41",
"v  c #504544",
"b  c #5A4E45",
"n  c #5A5544",
"m  c #5C5844",
"M  c #5D5A4A",
"N  c #58544B",
"B  c #5C4B53",
"V  c #5B425A",
"C  c #52485E",
"Z  c #5B5454",
"A  c #5D5852",
"S  c #635C4C",
"D  c #625549",
"F  c #675A58",
"G  c #64614B",
"H  c #6B6B4F",
"J  c #69654F",
"K  c #646252",
"L  c #6D6153",
"P  c #6F6C53",
"I  c #6C6C5A",
"U  c #6A6559",
"Y  c #706A53",
"T  c #73635B",
"R  c #766B5A",
"E  c #796D5C",
"W  c #757256",
"Q  c #76735C",
"!  c #7B745D",
"~  c #7C7B5E",
"^  c #4E4E6A",
"/  c #52496D",
"(  c #63406F",
")  c #684675",
"_  c #704D7C",
"`  c #6D5877",
"'  c #755475",
"]  c #7F7865",
"[  c #6E6572",
"{  c #80745F",
"}  c #817D61",
"|  c #827D68",
" . c #887B6B",
".. c #987E7C",
"X. c #6A9268",
"o. c #738971",
"O. c #7CA977",
"+. c #868465",
"@. c #888469",
"#. c #8E8A6B",
"$. c #838469",
"%. c #94846C",
"&. c #97896C",
"*. c #95936F",
"=. c #8E8B70",
"-. c #918270",
";. c #928E74",
":. c #9B8B74",
">. c #9A8A7A",
",. c #959272",
"<. c #9A9575",
"1. c #9B9875",
"2. c #9E9A7C",
"3. c #989A79",
"4. c #A28D77",
"5. c #A28E7A",
"6. c #A39175",
"7. c #A2937A",
"8. c #AC997C",
"9. c #A29F7B",
"0. c #9FA076",
"q. c #A3A17B",
"w. c #A6AA7D",
"e. c #7F5F8A",
"r. c #827690",
"t. c #9A9189",
"y. c #888395",
"u. c #A39F80",
"i. c #AE9D86",
"p. c #B09E81",
"a. c #9CBC9A",
"s. c #A4A381",
"d. c #ADA983",
"f. c #AAA583",
"g. c #B6A389",
"h. c #BAAA8D",
"j. c #B9A78C",
"k. c #B7B48B",
"l. c #B9B68B",
"z. c #B9B88B",
"x. c #B9AC9C",
"c. c #A0B39B",
"v. c #BCB892",
"b. c #A799AA",
"n. c #ADAAA6",
"m. c #B4B0A8",
"M. c #B5ACB6",
"N. c #C1AA8E",
"B. c #C2BF8E",
"V. c #C7AD91",
"C. c #C3B393",
"Z. c #CBB292",
"A. c #CDBA9E",
"S. c #D5BD9B",
"D. c #D0B895",
"F. c #CDBEAB",
"G. c #C5C494",
"H. c #C9C696",
"J. c #C8CB98",
"K. c #D0CD9A",
"L. c #DDC09F",
"P. c #D4D39C",
"I. c #D8C6A6",
"U. c #DCDBA3",
"Y. c #D9D7A5",
"T. c #DBCAB1",
"R. c #C1D0BE",
"E. c #E5CAA4",
"W. c #E5CBA7",
"Q. c #EDD2AD",
"!. c #F1D4AD",
"~. c #E2D9BB",
"^. c #F1D5B1",
"/. c #F5D9B2",
"(. c #FBDDB6",
"). c #FDDEBA",
"_. c #E5E3AB",
"`. c #EDEBAF",
"'. c #EEECB3",
"]. c #EAE1BF",
"[. c #FEE1B9",
"{. c #FEE0B7",
"}. c #F6F5B5",
"|. c #F8F7B5",
" X c #F9F8B7",
".X c #F7F6B9",
"XX c #F9F7BB",
"oX c #F9F9BA",
"OX c #CCC8C2",
"+X c #DDD8CF",
"@X c #D8DFD3",
"#X c #EDDEC3",
"$X c #D2E1CA",
"%X c #EDE6DA",
/* pixels */
"                                                          ",
"            XXoXoXoX|.|.                                  ",
"          J._.Y.H.K.`.|.                                  ",
"        m #.k.#.M o.K.|. XoXXX'.#.< 9 P n 2 o             ",
"      Y Y Q { W m #.P.|. X}.'.Y.,.r M ~ W S i 9           ",
"      ,.*.J 4 W z.P.`. X X}.Y.v.u.=.;.1.w.B.w.n O         ",
"      q.q.Q t #.U. XoX'.P.z.2.| ;.s.<.{ *.B.l.+.S         ",
"      q.9.<.;.z._.|.oXU.q.H r 7 R q.Q q i { q.B.P.        ",
"      P W @.u.k.K.H.k.q.<.&.! R :.C.7.Q P Q <.K.|.        ",
"      & & K 7.f.d.@.v n 8.Q.W.E.Q.^.Q.W.j.} @.H.}.        ",
"      # @ M 2.;.! R R %.S.[.{.{.{.(.(.{.E.g.7.1.<.$.      ",
"      @ - M 3.] r S h.^.(.[.[.[.[.{.{.{.(./.V.K 1 1       ",
"      X # M 2.| N  .F.#X~.I.h.6.D.(.S.8.h.T.x.A > >       ",
"      . X N 2.;.] t.OX@XR.a.I 4 :./.8.y U m.n.Z -         ",
"      + X 4 n E ..x.@X$Xa.X.u 2 %./.7.9 c o.o.c *         ",
"    = = * o . y :.F.%X$XO.e q <  ./.5.7 3 w w 3 @         ",
"      N K 9 $ b 6.A.#X].G.w.3.:.N.E.V.4.<.s.3.K           ",
"      ,.3.S $ b 6.Z.E.Q.Q.Q.^.^.L.V.L.^.(.).[.            ",
"      m m y       %.{ E Q E E T L S T  .i.                ",
"      % %           < , , = ; - - @ * =                   ",
"                    ! T V g f f f p p ;                   ",
"                    5...' x ) _ ( k j v                   ",
"                o 4 S F ^ / r.b.` 6 B >.i.                ",
"                # < 7 7 d ^ r.M.[ ; B 7.g.                ",
"                > , , 6 f k _ r.) g j v v                 ",
"                  > @ , d k z x k h p ; O                 ",
"                    + , d B V   6 : :                     ",
"                    + 1 0 N       o                       ",
"                                                          "
};
