/* XPM */
static char *c5ef58ca597047598e4baac79082c841rxYYBxFAcjU9KUwC[] = {
/* columns rows colors chars-per-pixel */
"24 36 68 1 ",
"  c None",
". c black",
"X c #020202",
"o c #040404",
"O c #060606",
"+ c gray4",
"@ c #0E0E0E",
"# c #101010",
"$ c #111111",
"% c gray7",
"& c #161616",
"* c gray9",
"= c #1E1E1E",
"- c gray14",
"; c #252525",
": c gray15",
"> c #272727",
", c #282828",
"< c #353535",
"1 c #393939",
"2 c #444444",
"3 c gray27",
"4 c #484848",
"5 c #4C4C4C",
"6 c gray30",
"7 c gray31",
"8 c #7E7E7E",
"9 c #BB240A",
"0 c #F62E0D",
"q c #F92F0D",
"w c #FB300D",
"e c #FD300E",
"r c #FF310E",
"t c #FF4D24",
"y c #FB5A24",
"u c #FA5B25",
"i c #FB5C25",
"p c #FE6A3A",
"a c #FF6A3A",
"s c #FE7732",
"d c #FF8D3E",
"f c #70C7FF",
"g c #808080",
"h c #B1B1B1",
"j c #F0998B",
"k c #F19A8B",
"l c #F29A8B",
"z c #F39A8B",
"x c #F49B8B",
"c c #F69A8A",
"v c #F69A8B",
"b c #F79B8B",
"n c #F89C8D",
"m c #F99D8D",
"M c #FAB7A1",
"N c #8CCCF4",
"B c #C3C3C3",
"V c #C5C5C5",
"C c #CBCBCB",
"Z c LightGray",
"A c #ECECEC",
"S c gray96",
"D c gray97",
"F c #F8F8F8",
"G c gray98",
"H c gray99",
"J c #FEFEFE",
"K c white",
/* pixels */
"   ttrrr                ",
"   aaarr                ",
"   rrrdd                ",
" ...................... ",
" ....o.o.oo....oo.o.o.. ",
" ;...;.;&;;....;;.;.;.; ",
" ....$.@........@.&.$.. ",
" o+oo+oo+oo+oo+oooooo+o ",
" ,,,@@@;=@@@@,;@@@;@@@; ",
" 6&6&&&6&&&&&36&&&6&&&6 ",
" ======-==========-===- ",
" <<<;<;;;<<<<<<<<;;;<;; ",
";647,6,;,67777636,,;7,,;",
",,,;,,,;,,,;;,,,,;,,;,;,",
"111111111111111111111111",
"88888888888888888888888g",
" 9999999999999999999999 ",
" rrrrrrrrrrrrrrrrrrrrrr ",
" raafffSrrrrrrrrcfffrrr ",
" rrrfffDddrrrrrrcfffrrr ",
" rrrfffDddrrrrrrbfffrrr ",
" raaKKKGrkBBBBArnKKKrrr ",
" rrrfffHrxKKKKArnfffddr ",
" rrrNNNKrcKKKKAaMNNNrrr ",
" rrrrrrrrxKKKKAaaarrrrr ",
" rrrrrrrrzKKKKArrrrrrrr ",
" rrrrrrrrcKKKKArrrrrrrr ",
" rrqqrqrrkKKKKAraaaaqrr ",
" qqqrqssskKKKKAwaaapwww ",
" qyiiiqq0jKKKKApaappaaq ",
" qiii00CZjAAAAAhB000000 ",
" VVVVVVhhgggggghhVVVVVV ",
" VVVVVVhh666666hhVVVVVV ",
" VVVVVVhh666666hhVVVVVV ",
" VVVVVVhhgggggghhVVVVVV ",
"       hh666666hh       "
};
