/* XPM */
static char *result[] = {
/* columns rows colors chars-per-pixel */
"32 33 194 2 ",
"   c #000000",
".  c #0B0B0B",
"X  c #131313",
"o  c #1E1E1E",
"O  c #2E2116",
"+  c #312316",
"@  c #33261A",
"#  c #36291C",
"$  c #392B1E",
"%  c #3D301F",
"&  c #0B0B2C",
"*  c #110F2C",
"=  c #14122D",
"-  c #1A1625",
";  c #050533",
":  c #0A0935",
">  c #0A093D",
",  c #14123B",
"<  c #1E1A3B",
"1  c #191435",
"2  c #251D23",
"3  c #261D31",
"4  c #212021",
"5  c #2D2729",
"6  c #362923",
"7  c #3C2D22",
"8  c #342A2C",
"9  c #362A25",
"0  c #3E3023",
"q  c #3F3128",
"w  c #2A253E",
"e  c #2A2938",
"r  c #312C3B",
"t  c #32263B",
"y  c #3C3A3D",
"u  c #383437",
"i  c #423425",
"p  c #43362A",
"a  c #463929",
"s  c #493A2B",
"d  c #453C3B",
"f  c #453933",
"g  c #4D4135",
"h  c #0D0B45",
"j  c #0C0A4B",
"k  c #120E4C",
"l  c #15134D",
"z  c #1D1B4E",
"x  c #1A1646",
"c  c #0E0B53",
"v  c #0E0B5A",
"b  c #120D56",
"n  c #130D5D",
"m  c #180D58",
"M  c #141251",
"N  c #1D1C52",
"B  c #15115A",
"V  c #1A115B",
"C  c #181153",
"Z  c #271C4D",
"A  c #271C5C",
"S  c #221E52",
"D  c #2D2944",
"F  c #28284B",
"G  c #322D45",
"H  c #3A3748",
"J  c #292755",
"K  c #3B3A56",
"L  c #0D0963",
"P  c #0F0A6A",
"I  c #130B63",
"U  c #1A0E63",
"Y  c #1C0E6B",
"T  c #140D69",
"R  c #171265",
"E  c #1B1365",
"W  c #1B136C",
"Q  c #160D74",
"!  c #1B0E72",
"~  c #1B0D7B",
"^  c #140A78",
"/  c #1E1273",
"(  c #1D127A",
")  c #241765",
"_  c #22176C",
"`  c #240F72",
"'  c #240E78",
"]  c #221475",
"[  c #241876",
"{  c #2C167E",
"}  c #271978",
"|  c #332F66",
" . c #393764",
".. c #2F257E",
"X. c #3D3974",
"o. c #423E45",
"O. c #4D494E",
"+. c #48444C",
"@. c #534B4D",
"#. c #5A504E",
"$. c #404055",
"%. c #4D4A55",
"&. c #514D5E",
"*. c #5C5150",
"=. c #534E60",
"-. c #625E64",
";. c #615E74",
":. c #626367",
">. c #766E78",
",. c #1E0D85",
"<. c #220E89",
"1. c #290E88",
"2. c #261384",
"3. c #2F1385",
"4. c #2C168B",
"5. c #281687",
"6. c #351B85",
"7. c #33148B",
"8. c #391C8A",
"9. c #291290",
"0. c #3C1C94",
"q. c #361A93",
"w. c #34238B",
"e. c #3C248D",
"r. c #342186",
"t. c #431E96",
"y. c #431D9A",
"u. c #442F8E",
"i. c #422392",
"p. c #432D93",
"a. c #4A239F",
"s. c #472E9B",
"d. c #5A2E9E",
"f. c #4E3797",
"g. c #4A339A",
"h. c #583C9D",
"j. c #4E2AA1",
"k. c #4D23A1",
"l. c #5B2CA5",
"z. c #5527A4",
"x. c #5D34A6",
"c. c #553AA4",
"v. c #643BAB",
"b. c #6B3CAA",
"n. c #5B5A82",
"m. c #7E7588",
"M. c #716F95",
"N. c #5C48A3",
"B. c #6644AB",
"V. c #744BAC",
"C. c #6F52AA",
"Z. c #715AAE",
"A. c #714BB3",
"S. c #7B4CB2",
"D. c #7B5AB6",
"F. c #7756B5",
"G. c #857D8A",
"H. c #807685",
"J. c #897E93",
"K. c #897E98",
"L. c #8357B5",
"P. c #8C65BD",
"I. c #8366B6",
"U. c #9163BA",
"Y. c #8570BD",
"T. c #956DC0",
"R. c #8F7EC1",
"E. c #8C72C2",
"W. c #9B76C2",
"Q. c #9C79C5",
"!. c #9275C5",
"~. c #A37AC5",
"^. c #8D8493",
"/. c #8E829B",
"(. c #90889D",
"). c #9B8FA2",
"_. c #9E96A3",
"`. c #A499AB",
"'. c #A28FB7",
"]. c #A18FBA",
"[. c #A799B8",
"{. c #B19EBB",
"}. c #B1A5B7",
"|. c #9F82C7",
" X c #A384C8",
".X c #AA8ACA",
"XX c #B08ECC",
"oX c #AC90C9",
"OX c #B09AC2",
"+X c #B69CCC",
"@X c #B6A3C5",
"#X c #B7A0CA",
"$X c #C1ADCD",
"%X c None",
/* pixels */
"%X%X%X%X%X%X%X%X%X%X%X%X%X%X%X%X%X%X%X%X%X%X%X%X%X%X%X%X%X%X%X%X",
"# i i i i i i i i i i a % i i i $ i i i i i i % a a 7 i i i i i ",
"# i $ % $ 7 7 7 9 $ 7 $ $ i i i @ i $ % $ i i % % $ $ i i i i i ",
"# i 0 $ 7 9 0 0 7 7 7 7 9 7 $ $ @ 7 7 i 7 i $ $ % 7 i 7 7 $ i $ ",
"# $ # # # @ $ $ # # @ $ 7 # @ @ @ @ @ $ $ + @ # @ $ $ @ @ @ $ # ",
"i $ i 0 0 i i i 0 0 d &.%.:.@.o.H w D t u f f i # i % % 7 i i i ",
"0 7 i 7 $ $ $ % 0 +.$.H K | ) Y U n c n b x J &.p i 7 7 i 7 7 i ",
"0 $ i 7 7 9 7 0 H K F S ] ' Y n k j j h k C J  .;.g i 7 6 7 7 7 ",
"# # $ # @ 8 # r F z l 3.3.] E E E E n B j M N X.M.*.# # @ + # # ",
"0 7 i i 7 G r F M l 0.t.r.p.V.S.S.b.x.j.7.W h l n.*.i i i # i i ",
"7 # 7 7 9 e < l h 6.z.p.Z.W.Q.!.Y.Z.N.e.e.7./ B N =.7 7 7 @ i i ",
"7 7 0 0 J = , c V l.x.I.oX]./.H.K.'.|.D.f...3.' b J d 0 7 @ i 7 ",
"7 $ # 6 E & h b i.b.Z.+X/.o.X . X y J.oXL.g.[ } E b D 7 $ # 0 7 ",
"i i 7 p Q & c I d.S.oX_.e           o ^. XA.i.V ` b z p i a i i ",
"7 7 6 8 Q : v W b.U.$XO..             u ].T.x.{ k E h r q q 7 0 ",
"0 q # 7 ~ h v [ S.U.}.O               X (.E.v.t.B V k x 9 7 q q ",
"# 9 $ # Q b B ] L. X_.X               . G.].N.0.Q M B , 7 6 # 7 ",
"i i i i V Q j ] V. X`.X               . ^.|.c.q.( l B = f p i i ",
"7 7 i 7 3 1.v W h.~.@Xu               2 }.D.f.q./ k M * p 7 7 i ",
"7 7 7 7 6 ` ` n i.U.+X>.X             :.#XZ.w.5./ l j * p i 7 7 ",
"# # @ $ # , 7.Y [ b.Q.{.-.X       . O.{.Q.h.5.2.U M h - 7 $ $ $ ",
"i i i a i 8 m 1.R w.A.~.OXG.%.y O.H.{. XF...5.~ b C , 2 f p p p ",
"i 7 7 i $ i x I 9./ w.B.U.XX+X#X+X.X!.A.p.W ( / M r < 2 i $ 7 i ",
"i 7 $ % 9 # 8 l L 5.4.8.s.B.F.D.D.A.v.i.R T R I w 7 6 $ # 7 $ 7 ",
"+ + + + + + O 2 h L Q 2.0.k.k.j.j.k.6.v b v P x @ @ + + + + + + ",
"a i i i i i i 9 * : c P ^ ,.<.<.~ n c c v v C 6 a i a a a 7 0 7 ",
"a 7 $ # i # # 6 Z n I L L I I n j j j > h k 8 # p 7 i 0 i # 9 9 ",
"a i 7 $ 7 $ 7 $ 7 t Z A ) U m h h ; ; : < 8 7 # p 7 7 0 7 7 9 $ ",
"i 7 i # # 7 $ # $ $ # # 7 7 # 8 2 2 1 # # 7 # # i $ # # 7 9 # # ",
"i i i i p p i i p i i i i i p i i i p 0 a a a i i a i 0 s i i a ",
"7 6 6 # i 7 7 @ i 0 7 7 7 0 7 7 0 7 $ # i 0 7 7 7 7 7 7 s 7 $ $ ",
"i 7 i # i 7 7 @ i # 7 7 # 7 7 7 7 0 $ # i 7 7 i 0 7 7 # i @ $ i ",
"+ @ @ + $ @ # + 7 + @ + + @ @ @ @ @ @ @ 6 @ @ $ # # @ + 7 + @ # "
};
