/* XPM */
static char *_642537390593[] = {
/* columns rows colors chars-per-pixel */
"36 36 54 1 ",
"  c #040607",
". c #050608",
"X c #070909",
"o c #0C0E0E",
"O c #110809",
"+ c #170909",
"@ c #100C0D",
"# c #190F0B",
"$ c #0F1011",
"% c #111214",
"& c #121314",
"* c #380E0E",
"= c #252525",
"- c #272627",
"; c #2E2C2C",
": c #353333",
"> c #471611",
", c #521211",
"< c #5A1913",
"1 c #621814",
"2 c #671A15",
"3 c #631F15",
"4 c #403B3B",
"5 c #203765",
"6 c #575959",
"7 c #5F5D5D",
"8 c #764E4B",
"9 c #822519",
"0 c #8F2E1C",
"q c #922B1C",
"w c #912C1C",
"e c #8A341C",
"r c #823D1D",
"t c #9F4E35",
"y c #885B3E",
"u c #A04628",
"i c #B0432C",
"p c #CE5A3C",
"a c #A27E70",
"s c #E3774F",
"d c #EC724C",
"f c #CA855A",
"g c #41679C",
"h c #4C77AF",
"j c #6585AF",
"k c #B2AFAE",
"l c #EEBC9A",
"z c #DEBCA5",
"x c #FACEAF",
"c c #DDDEDE",
"v c gray89",
"b c #E6E6E6",
"n c white",
"m c None",
/* pixels */
"mmmmmmmmmmmmmmmmmmmmmmmmmmmmmmmmmmmm",
"mmmmmmmmmmmmmmmmmmmmmmmmmmmmmmmmmmmm",
"mmmmmmmmmmmmmmmmmmmmm=mmmmmmmmmmmmmm",
"mmmmmmmmmmmmmmmmmmm= .mmmmmmmmmmmmmm",
"mmmmmmmmmmmmmmmmmm   .mmmmmmmmmmmmmm",
"mmmmmmmmmmmmmmm ==    ====.mmmmmmmmm",
"mmmmmmmmmm  ==$;4      =. mmmmmmmmmm",
"mmmmmmmmmmmmm   = = r=   mmmmmmmmmmm",
"mmmmmmmmmmmm  =r=  =f*==  mmmmmmmmmm",
"mmmmmmmmmmmm   frknxf7 mmmmmmmmmmmmm",
"mmmmmmmmmmmmmmm  xxxrymmmmmmmmmmmmmm",
"mmmmmmmmmmmmm #@lrrz+> mmmmmmmmmmmmm",
"mmmmmmmmmm%gddudhjfrlad &mmmmmmmmmmm",
"mmmmmmmmmm hhqdqdhhhhhdq mmmmmmmmmmm",
"mmmmmmmmmmfr5 qddddhhid mmmmmmmmmmmm",
"mmmmmmmmmmxrf 0q,dddep, mmmmmmmmmmmm",
"mmmmmmmmm rf n qq,qd,*r mmmmmmmmmmmm",
"mmmmmmmmm f vc6q,hhhh*f mmmmmmmmmmmm",
"mmmmmmmmm 5 mb*dqd,,d3 5mmmmmmmmmmmm",
"mmmmmmmmm xff tddd,,dp fmmmmmmmmmmmm",
"mmmmmmmmmm f  pddd qdd r mmmmmmmmmmm",
"mmmmmmmmmmmmXqddd9 qddo mmmmmmmmmmmm",
"mmmmmmmmmmmm,sddd  ,ddd mmmmmmmmmmmm",
"mmmmmmmmmmm ,qddq mqddq mmmmmmmmmmmm",
"mmmmmmmmmmm ,qdq mmqqd, mmmmmmmmmmmm",
"mmmmmmmmmm,dqq2 mmm,0<qdmmmmmmmmmmmm",
"mmmmmmmmmm,dddd mm ,qqddmmmmmmmmmmmm",
"mmmmmmmmmm1d,,:mmm qqO mmmmmmmmmmmmm",
"mmmmmmmmm hq mmmmmm 58hmmmmmmmmmmmmm",
"mmmmmmmm  qhmmmmmmm 5hm mmmmmmmmmmmm",
"mmmmmmmm h5 mmmmmmmm 5555 mmmmmmmmmm",
"mmmmmmmm5hh mmmmmmmm      mmmmmmmmmm",
"mmmmmmmmmmmmmmmmmmmmmmmmmmmmmmmmmmmm",
"mmmmmmmmmmmmmmmmmmmmmmmmmmmmmmmmmmmm",
"mmmmmmmmmmmmmmmmmmmmmmmmmmmmmmmmmmmm",
"mmmmmmmmmmmmmmmmmmmmmmmmmmmmmmmmmmmm"
};
