/* XPM */
static char *_642538185818[] = {
/* columns rows colors chars-per-pixel */
"36 36 94 2 ",
"   c gray3",
".  c gray4",
"X  c #0B0B0B",
"o  c #0C0C0C",
"O  c gray5",
"+  c gray6",
"@  c #13140F",
"#  c #101010",
"$  c #111111",
"%  c gray7",
"&  c #131313",
"*  c #151611",
"=  c gray8",
"-  c #151515",
";  c #161616",
":  c gray9",
">  c #1B1C16",
",  c #181818",
"<  c #191919",
"1  c gray10",
"2  c #1B1B1B",
"3  c #1D1E18",
"4  c #1D1D1B",
"5  c gray11",
"6  c #1D1D1D",
"7  c #1E1E1E",
"8  c gray12",
"9  c #23241E",
"0  c #202020",
"q  c gray13",
"w  c #222222",
"e  c #232323",
"r  c #262721",
"t  c gray14",
"y  c #252525",
"u  c gray15",
"i  c #272727",
"p  c #272822",
"a  c #2C2D27",
"s  c #282828",
"d  c gray16",
"f  c #2A2A2A",
"g  c gray17",
"h  c #2D2E29",
"j  c #2C2C2A",
"k  c #2D2D2B",
"l  c #2C2C2C",
"z  c #2D2D2D",
"x  c gray18",
"c  c #2F2F2F",
"v  c #33342E",
"b  c #33342F",
"n  c gray19",
"m  c #313131",
"M  c #323232",
"N  c gray20",
"B  c #343434",
"V  c #353535",
"C  c #363634",
"Z  c gray21",
"A  c #373737",
"S  c #383934",
"D  c #393A34",
"F  c #393937",
"G  c #3B3C36",
"H  c #3B3C37",
"J  c gray22",
"K  c #393939",
"L  c #3B3B39",
"P  c #3A3A3A",
"I  c gray23",
"U  c #3C3D38",
"Y  c #3C3C3C",
"T  c gray24",
"R  c #3E3E3E",
"E  c #3F3F3F",
"W  c gray25",
"Q  c #414141",
"!  c gray26",
"~  c #434343",
"^  c #444444",
"/  c gray27",
"(  c #474745",
")  c #464646",
"_  c gray28",
"`  c #484848",
"'  c #494949",
"]  c gray29",
"[  c #4B4B4B",
"{  c #4C4C4C",
"}  c gray30",
"|  c #4E4E4E",
" . c gray31",
".. c #535353",
/* pixels */
"K T Q T z 8 s ^ Z m Z K T K s 0 m T T T T ^ ^ Q u 0 K Q m Z ^ ^ z n A Y ",
"T T Q Q Z u m ^ Q T T Q ^ Q Z z T Q ^ T Q ^ ` T u u Q ` K T ` ^ 0 s c A ",
"Z m m Z Z s m K K Z K K T K m s Z K T m z K K z : : z T s s K m s z B K ",
"u 8 0 s u 0 u z u u u u u u 0 8 8 u 0 8 8 0 u 8 : O 0 s : 8 z s , , 2 8 ",
"8 : , u u 0 0 u 8 8 0 u 0 0 8 , : 8 8 : : 0 u 0 z 0 s z , 0 K T s s g s ",
"0 8 u z s 0 0 m 0 z Z Z Z z s s u s s u u m Z Z K z K Z 8 s Q Q Q Q ~ ~ ",
"u s Z T m u s K 0 m Q ^ Q K z z m Z m s s K T K Z s K K u s T Z m n c z ",
"u z T Q m 0 s T 8 z Q ` Q Z z u Z Z m u u z m m m z Q ^ m m T m ` ^ Q T ",
"& u s 8 : , 8 , 8 8 8 0 s s 0 8 8 X O u z , , s 8 8 , : : 0 8 : & : 0 t ",
"s K T z s z m s Z Z Z Z T T T Z T s u T ` Q T ` m s s z m m m z i c A I ",
"m K K z s m Z m Z z s z m Z Z m m 8 , m Q K Z Z Q Z m ` } Q Q ` i c A I ",
"} } ^ T T ^ ` } ^ Q T K Q ^ ^ ^ ^ m s K ` Q T T T s z ^ } T T } Z Y ~ ^ ",
"Z z s s s z z Z K m s z m Z Z Z ^ m s m K Z m z z , 8 m T m m T 0 i l z ",
"8 : O & : : : 8 , : & : , 8 8 , 8 : O O O & & & 8 8 , 0 u z m z : 8 8 8 ",
"Q Z m T Q T T Q m m z m Z K Z m 0 s u 0 8 8 s z u z s , 0 K T m ^ ` ` ^ ",
"T m z Q ` T K T Z m Z Z T T Z m 0 s m u 0 s Z Q Z ^ K 8 u } ..T ^ _ ` Q ",
"^ Z s K ` ` T K T s m Q T Q Q u s m K Z s u m Q Q ` T s s ^ } T I c z J ",
"m 8 , 8 z z s z u : u m z Z Q z z Z T K m z m K m T m 0 u T Q m ^ K Z K ",
"0 : & : , , 0 z z 0 s z , , u 8 : , 0 0 0 8 : : s z s , , s s 8 l 8 , 0 ",
"z s s z u 8 u K T m T m : : u u m z s m K K m z Z Z s , : 8 8 : , + & 2 ",
"T Q ^ } Q z m K K m Q T 0 s Q ^ Q K m m T ` ` ` ` Q m 0 u z Z m Z g g Y ",
"K T ^ } Q m s Z T Z Q Q u s ^ Q K z 0 0 z K T Q ^ T m z m Q ` ` K n c K ",
"u 0 s z s 0 8 0 K z K Z 8 8 m s T Z z z z Z K K m z u z m m Z Z i 5 , 0 ",
": X X : : & : , : O , 0 : 8 Z s , 8 , , : & & & 8 , 8 0 0 : X X 0 : : 0 ",
"0 u u 0 0 s K Q K T Z z z Q ^ K Q K m m Z m s u s Z T K K Q K u s N I T ",
"s s s 0 u s Z K Z K m s s T T Z K m s s s z u 0 u K ^ ^ } } ^ m n J W ^ ",
"Q Q Q T K K Q ` K Z m s m K T Z Q T K Z K K Z Z 8 z T ^ } ` T m Z T ^ _ ",
"0 0 u 0 8 8 0 u s s u 0 s z z s 8 8 , , , 8 8 0 & 8 z Z Z z s u 0 s n m ",
": , 8 8 , , , 8 8 : : : 8 8 8 8 0 0 8 , , 8 0 s u s s z 0 8 8 u # : , 8 ",
"u m Z K K K K T s 8 8 u s s 0 s Q Q T K Z T Q ` Q T T K z 0 u Z e u s s ",
": 8 s Z Z Z m Z K z s K T Z Z Z K K Z m s s Z Q } ^ ` ` K s s T K T E Y ",
"8 u Z Q Q ^ ^ ` m u u m K z s m Q ^ T K m m T ` Q Q ^ } T u s K H U U C ",
"X u Z T K K T ^ 0 u s z m m z z Z m s 0 u s K T Z m T T Z 0 0 k v S U H ",
"O 0 z s 8 , 8 0 , , 8 u u u 0 0 8 , , : : : , , : : 0 u , & & 4 @ > 9 r ",
"s Z K m 0 , 8 u u s z z z z z u K T Q Q T K Z z & : 0 z u 4 0 k @ 3 r k ",
"Q Q ` ^ Z z Z ` Z K T T T K Z m K T Q ^ ^ Q K K u z Z Q T Z K ^ k v D G "
};
